<mxfile host="app.diagrams.net" modified="2020-11-21T13:17:36.896Z" agent="5.0 (X11)" etag="UG2uFAGmwE-APSffHRUI" version="13.10.0" type="github">
  <diagram id="8StgFau6CERU6S8Ug89j" name="Page-1">
    <mxGraphModel dx="1022" dy="695" grid="1" gridSize="10" guides="1" tooltips="1" connect="1" arrows="1" fold="1" page="1" pageScale="1" pageWidth="850" pageHeight="1100" math="0" shadow="0">
      <root>
        <mxCell id="0" />
        <mxCell id="1" parent="0" />
        <mxCell id="SlvavN0k8m86maqTuqYq-1" value="&lt;u&gt;GUI&lt;/u&gt;" style="rounded=0;whiteSpace=wrap;html=1;" vertex="1" parent="1">
          <mxGeometry x="310" y="20" width="100" height="30" as="geometry" />
        </mxCell>
        <mxCell id="SlvavN0k8m86maqTuqYq-46" style="edgeStyle=orthogonalEdgeStyle;rounded=0;orthogonalLoop=1;jettySize=auto;html=1;exitX=0.5;exitY=1;exitDx=0;exitDy=0;entryX=0.5;entryY=0;entryDx=0;entryDy=0;" edge="1" parent="1" source="SlvavN0k8m86maqTuqYq-2" target="SlvavN0k8m86maqTuqYq-6">
          <mxGeometry relative="1" as="geometry" />
        </mxCell>
        <mxCell id="SlvavN0k8m86maqTuqYq-2" value="" style="rounded=0;whiteSpace=wrap;html=1;" vertex="1" parent="1">
          <mxGeometry x="290" y="83" width="140" height="60" as="geometry" />
        </mxCell>
        <mxCell id="SlvavN0k8m86maqTuqYq-3" value="&lt;u&gt;a1 : Admin&lt;br&gt;&lt;/u&gt;" style="text;html=1;align=center;verticalAlign=middle;resizable=0;points=[];autosize=1;" vertex="1" parent="1">
          <mxGeometry x="330" y="83" width="70" height="20" as="geometry" />
        </mxCell>
        <mxCell id="SlvavN0k8m86maqTuqYq-4" value="" style="endArrow=none;html=1;exitX=0;exitY=0.25;exitDx=0;exitDy=0;entryX=1;entryY=0.25;entryDx=0;entryDy=0;" edge="1" parent="1">
          <mxGeometry width="50" height="50" relative="1" as="geometry">
            <mxPoint x="291" y="104" as="sourcePoint" />
            <mxPoint x="431" y="104" as="targetPoint" />
          </mxGeometry>
        </mxCell>
        <mxCell id="SlvavN0k8m86maqTuqYq-5" value="- Name : Oliver Brock" style="text;html=1;strokeColor=none;fillColor=none;align=center;verticalAlign=middle;whiteSpace=wrap;rounded=0;" vertex="1" parent="1">
          <mxGeometry x="285" y="110" width="150" height="20" as="geometry" />
        </mxCell>
        <mxCell id="SlvavN0k8m86maqTuqYq-6" value="" style="rounded=0;whiteSpace=wrap;html=1;" vertex="1" parent="1">
          <mxGeometry x="279" y="170" width="165" height="80" as="geometry" />
        </mxCell>
        <mxCell id="SlvavN0k8m86maqTuqYq-7" value="&lt;u&gt;al : login&lt;br&gt;&lt;/u&gt;" style="text;html=1;align=center;verticalAlign=middle;resizable=0;points=[];autosize=1;" vertex="1" parent="1">
          <mxGeometry x="325" y="173" width="60" height="20" as="geometry" />
        </mxCell>
        <mxCell id="SlvavN0k8m86maqTuqYq-8" value="" style="endArrow=none;html=1;entryX=1;entryY=0.338;entryDx=0;entryDy=0;entryPerimeter=0;" edge="1" parent="1">
          <mxGeometry width="50" height="50" relative="1" as="geometry">
            <mxPoint x="279" y="194" as="sourcePoint" />
            <mxPoint x="444" y="194.03999999999996" as="targetPoint" />
          </mxGeometry>
        </mxCell>
        <mxCell id="SlvavN0k8m86maqTuqYq-9" value="&lt;div align=&quot;left&quot;&gt;- Id : olibrock@gmail.com&lt;/div&gt;&lt;div align=&quot;left&quot;&gt;&lt;br&gt;&lt;/div&gt;&lt;div align=&quot;left&quot;&gt;- Password : oliveradmin2020&lt;br&gt;&lt;/div&gt;" style="text;html=1;strokeColor=none;fillColor=none;align=left;verticalAlign=middle;whiteSpace=wrap;rounded=0;" vertex="1" parent="1">
          <mxGeometry x="279" y="210" width="185" height="20" as="geometry" />
        </mxCell>
        <mxCell id="SlvavN0k8m86maqTuqYq-10" value="" style="rounded=0;whiteSpace=wrap;html=1;" vertex="1" parent="1">
          <mxGeometry x="10" y="380" width="150" height="100" as="geometry" />
        </mxCell>
        <mxCell id="SlvavN0k8m86maqTuqYq-12" value="" style="endArrow=none;html=1;exitX=0;exitY=0.25;exitDx=0;exitDy=0;entryX=1;entryY=0.25;entryDx=0;entryDy=0;" edge="1" parent="1" source="SlvavN0k8m86maqTuqYq-10" target="SlvavN0k8m86maqTuqYq-10">
          <mxGeometry width="50" height="50" relative="1" as="geometry">
            <mxPoint x="80" y="400" as="sourcePoint" />
            <mxPoint x="130" y="350" as="targetPoint" />
          </mxGeometry>
        </mxCell>
        <mxCell id="SlvavN0k8m86maqTuqYq-13" value="&lt;u&gt;m3 : Movie&lt;br&gt;&lt;/u&gt;" style="text;html=1;align=center;verticalAlign=middle;resizable=0;points=[];autosize=1;" vertex="1" parent="1">
          <mxGeometry x="50" y="383" width="70" height="20" as="geometry" />
        </mxCell>
        <mxCell id="SlvavN0k8m86maqTuqYq-16" value="" style="rounded=0;whiteSpace=wrap;html=1;" vertex="1" parent="1">
          <mxGeometry x="190" y="380" width="150" height="100" as="geometry" />
        </mxCell>
        <mxCell id="SlvavN0k8m86maqTuqYq-17" value="" style="endArrow=none;html=1;exitX=0;exitY=0.25;exitDx=0;exitDy=0;entryX=1;entryY=0.25;entryDx=0;entryDy=0;" edge="1" parent="1" source="SlvavN0k8m86maqTuqYq-16" target="SlvavN0k8m86maqTuqYq-16">
          <mxGeometry width="50" height="50" relative="1" as="geometry">
            <mxPoint x="260" y="400" as="sourcePoint" />
            <mxPoint x="310" y="350" as="targetPoint" />
          </mxGeometry>
        </mxCell>
        <mxCell id="SlvavN0k8m86maqTuqYq-18" value="&lt;u&gt;m4 : Movie&lt;br&gt;&lt;/u&gt;" style="text;html=1;align=center;verticalAlign=middle;resizable=0;points=[];autosize=1;" vertex="1" parent="1">
          <mxGeometry x="230" y="383" width="70" height="20" as="geometry" />
        </mxCell>
        <mxCell id="SlvavN0k8m86maqTuqYq-19" value="" style="rounded=0;whiteSpace=wrap;html=1;" vertex="1" parent="1">
          <mxGeometry x="444" y="320" width="150" height="100" as="geometry" />
        </mxCell>
        <mxCell id="SlvavN0k8m86maqTuqYq-20" value="" style="endArrow=none;html=1;exitX=0;exitY=0.25;exitDx=0;exitDy=0;entryX=1;entryY=0.25;entryDx=0;entryDy=0;" edge="1" parent="1" source="SlvavN0k8m86maqTuqYq-19" target="SlvavN0k8m86maqTuqYq-19">
          <mxGeometry width="50" height="50" relative="1" as="geometry">
            <mxPoint x="514" y="400" as="sourcePoint" />
            <mxPoint x="564" y="350" as="targetPoint" />
          </mxGeometry>
        </mxCell>
        <mxCell id="SlvavN0k8m86maqTuqYq-21" value="&lt;u&gt;m1 : Movie&lt;br&gt;&lt;/u&gt;" style="text;html=1;align=center;verticalAlign=middle;resizable=0;points=[];autosize=1;" vertex="1" parent="1">
          <mxGeometry x="484" y="322" width="70" height="20" as="geometry" />
        </mxCell>
        <mxCell id="SlvavN0k8m86maqTuqYq-22" value="" style="rounded=0;whiteSpace=wrap;html=1;" vertex="1" parent="1">
          <mxGeometry x="660" y="320" width="150" height="100" as="geometry" />
        </mxCell>
        <mxCell id="SlvavN0k8m86maqTuqYq-23" value="" style="endArrow=none;html=1;exitX=0;exitY=0.25;exitDx=0;exitDy=0;entryX=1;entryY=0.25;entryDx=0;entryDy=0;" edge="1" parent="1" source="SlvavN0k8m86maqTuqYq-22" target="SlvavN0k8m86maqTuqYq-22">
          <mxGeometry width="50" height="50" relative="1" as="geometry">
            <mxPoint x="730" y="400" as="sourcePoint" />
            <mxPoint x="780" y="350" as="targetPoint" />
          </mxGeometry>
        </mxCell>
        <mxCell id="SlvavN0k8m86maqTuqYq-24" value="&lt;u&gt;m2 : Movie&lt;br&gt;&lt;/u&gt;" style="text;html=1;align=center;verticalAlign=middle;resizable=0;points=[];autosize=1;" vertex="1" parent="1">
          <mxGeometry x="700" y="322" width="70" height="20" as="geometry" />
        </mxCell>
        <mxCell id="SlvavN0k8m86maqTuqYq-25" value="" style="rounded=0;whiteSpace=wrap;html=1;" vertex="1" parent="1">
          <mxGeometry x="10" y="520" width="150" height="100" as="geometry" />
        </mxCell>
        <mxCell id="SlvavN0k8m86maqTuqYq-26" value="" style="endArrow=none;html=1;exitX=0;exitY=0.25;exitDx=0;exitDy=0;entryX=1;entryY=0.25;entryDx=0;entryDy=0;" edge="1" parent="1" source="SlvavN0k8m86maqTuqYq-25" target="SlvavN0k8m86maqTuqYq-25">
          <mxGeometry width="50" height="50" relative="1" as="geometry">
            <mxPoint x="80" y="560" as="sourcePoint" />
            <mxPoint x="130" y="510" as="targetPoint" />
          </mxGeometry>
        </mxCell>
        <mxCell id="SlvavN0k8m86maqTuqYq-27" value="&lt;u&gt;v4 : Venue&lt;br&gt;&lt;/u&gt;" style="text;html=1;align=center;verticalAlign=middle;resizable=0;points=[];autosize=1;" vertex="1" parent="1">
          <mxGeometry x="50" y="524" width="70" height="20" as="geometry" />
        </mxCell>
        <mxCell id="SlvavN0k8m86maqTuqYq-28" value="" style="rounded=0;whiteSpace=wrap;html=1;" vertex="1" parent="1">
          <mxGeometry x="190" y="520" width="160" height="100" as="geometry" />
        </mxCell>
        <mxCell id="SlvavN0k8m86maqTuqYq-29" value="" style="endArrow=none;html=1;exitX=0;exitY=0.25;exitDx=0;exitDy=0;entryX=1;entryY=0.25;entryDx=0;entryDy=0;" edge="1" parent="1" source="SlvavN0k8m86maqTuqYq-28" target="SlvavN0k8m86maqTuqYq-28">
          <mxGeometry width="50" height="50" relative="1" as="geometry">
            <mxPoint x="260" y="560" as="sourcePoint" />
            <mxPoint x="310" y="510" as="targetPoint" />
          </mxGeometry>
        </mxCell>
        <mxCell id="SlvavN0k8m86maqTuqYq-30" value="&lt;u&gt;v5 : Venue&lt;br&gt;&lt;/u&gt;" style="text;html=1;align=center;verticalAlign=middle;resizable=0;points=[];autosize=1;" vertex="1" parent="1">
          <mxGeometry x="230" y="523" width="70" height="20" as="geometry" />
        </mxCell>
        <mxCell id="SlvavN0k8m86maqTuqYq-31" value="" style="rounded=0;whiteSpace=wrap;html=1;" vertex="1" parent="1">
          <mxGeometry x="360" y="480" width="150" height="100" as="geometry" />
        </mxCell>
        <mxCell id="SlvavN0k8m86maqTuqYq-32" value="" style="endArrow=none;html=1;exitX=0;exitY=0.25;exitDx=0;exitDy=0;entryX=1;entryY=0.25;entryDx=0;entryDy=0;" edge="1" parent="1" source="SlvavN0k8m86maqTuqYq-31" target="SlvavN0k8m86maqTuqYq-31">
          <mxGeometry width="50" height="50" relative="1" as="geometry">
            <mxPoint x="430" y="560" as="sourcePoint" />
            <mxPoint x="480" y="510" as="targetPoint" />
          </mxGeometry>
        </mxCell>
        <mxCell id="SlvavN0k8m86maqTuqYq-33" value="&lt;u&gt;v1 : Venue&lt;br&gt;&lt;/u&gt;" style="text;html=1;align=center;verticalAlign=middle;resizable=0;points=[];autosize=1;" vertex="1" parent="1">
          <mxGeometry x="400" y="482" width="70" height="20" as="geometry" />
        </mxCell>
        <mxCell id="SlvavN0k8m86maqTuqYq-34" value="" style="rounded=0;whiteSpace=wrap;html=1;" vertex="1" parent="1">
          <mxGeometry x="520" y="480" width="150" height="100" as="geometry" />
        </mxCell>
        <mxCell id="SlvavN0k8m86maqTuqYq-35" value="" style="endArrow=none;html=1;exitX=0;exitY=0.25;exitDx=0;exitDy=0;entryX=1;entryY=0.25;entryDx=0;entryDy=0;" edge="1" parent="1" source="SlvavN0k8m86maqTuqYq-34" target="SlvavN0k8m86maqTuqYq-34">
          <mxGeometry width="50" height="50" relative="1" as="geometry">
            <mxPoint x="590" y="560" as="sourcePoint" />
            <mxPoint x="640" y="510" as="targetPoint" />
          </mxGeometry>
        </mxCell>
        <mxCell id="SlvavN0k8m86maqTuqYq-36" value="&lt;u&gt;v2 : Venue&lt;br&gt;&lt;/u&gt;" style="text;html=1;align=center;verticalAlign=middle;resizable=0;points=[];autosize=1;" vertex="1" parent="1">
          <mxGeometry x="560" y="482" width="70" height="20" as="geometry" />
        </mxCell>
        <mxCell id="SlvavN0k8m86maqTuqYq-37" value="" style="rounded=0;whiteSpace=wrap;html=1;" vertex="1" parent="1">
          <mxGeometry x="680" y="480" width="160" height="100" as="geometry" />
        </mxCell>
        <mxCell id="SlvavN0k8m86maqTuqYq-38" value="" style="endArrow=none;html=1;exitX=0;exitY=0.25;exitDx=0;exitDy=0;entryX=1;entryY=0.25;entryDx=0;entryDy=0;" edge="1" parent="1" source="SlvavN0k8m86maqTuqYq-37" target="SlvavN0k8m86maqTuqYq-37">
          <mxGeometry width="50" height="50" relative="1" as="geometry">
            <mxPoint x="750" y="560" as="sourcePoint" />
            <mxPoint x="800" y="510" as="targetPoint" />
          </mxGeometry>
        </mxCell>
        <mxCell id="SlvavN0k8m86maqTuqYq-39" value="&lt;u&gt;v2 : Venue&lt;br&gt;&lt;/u&gt;" style="text;html=1;align=center;verticalAlign=middle;resizable=0;points=[];autosize=1;" vertex="1" parent="1">
          <mxGeometry x="720" y="482" width="70" height="20" as="geometry" />
        </mxCell>
        <mxCell id="SlvavN0k8m86maqTuqYq-42" value="" style="endArrow=none;html=1;" edge="1" parent="1">
          <mxGeometry width="50" height="50" relative="1" as="geometry">
            <mxPoint x="519" y="321" as="sourcePoint" />
            <mxPoint x="360" y="290" as="targetPoint" />
            <Array as="points">
              <mxPoint x="520" y="290" />
            </Array>
          </mxGeometry>
        </mxCell>
        <mxCell id="SlvavN0k8m86maqTuqYq-43" value="" style="endArrow=none;html=1;exitX=0.571;exitY=-0.05;exitDx=0;exitDy=0;exitPerimeter=0;" edge="1" parent="1" source="SlvavN0k8m86maqTuqYq-24">
          <mxGeometry width="50" height="50" relative="1" as="geometry">
            <mxPoint x="720" y="320" as="sourcePoint" />
            <mxPoint x="510" y="290" as="targetPoint" />
            <Array as="points">
              <mxPoint x="740" y="290" />
            </Array>
          </mxGeometry>
        </mxCell>
        <mxCell id="SlvavN0k8m86maqTuqYq-44" value="" style="endArrow=none;html=1;exitX=0.5;exitY=0;exitDx=0;exitDy=0;entryX=0.5;entryY=1;entryDx=0;entryDy=0;" edge="1" parent="1" source="SlvavN0k8m86maqTuqYq-25" target="SlvavN0k8m86maqTuqYq-10">
          <mxGeometry width="50" height="50" relative="1" as="geometry">
            <mxPoint x="60" y="480" as="sourcePoint" />
            <mxPoint x="110" y="430" as="targetPoint" />
          </mxGeometry>
        </mxCell>
        <mxCell id="SlvavN0k8m86maqTuqYq-45" value="" style="endArrow=none;html=1;entryX=0.547;entryY=1.01;entryDx=0;entryDy=0;entryPerimeter=0;" edge="1" parent="1" target="SlvavN0k8m86maqTuqYq-16">
          <mxGeometry width="50" height="50" relative="1" as="geometry">
            <mxPoint x="272" y="520" as="sourcePoint" />
            <mxPoint x="290" y="420" as="targetPoint" />
          </mxGeometry>
        </mxCell>
        <mxCell id="SlvavN0k8m86maqTuqYq-47" value="" style="endArrow=none;html=1;exitX=0.443;exitY=0;exitDx=0;exitDy=0;exitPerimeter=0;entryX=0.5;entryY=1;entryDx=0;entryDy=0;" edge="1" parent="1" source="SlvavN0k8m86maqTuqYq-3" target="SlvavN0k8m86maqTuqYq-1">
          <mxGeometry width="50" height="50" relative="1" as="geometry">
            <mxPoint x="340" y="90" as="sourcePoint" />
            <mxPoint x="390" y="40" as="targetPoint" />
          </mxGeometry>
        </mxCell>
        <mxCell id="SlvavN0k8m86maqTuqYq-48" value="" style="endArrow=none;html=1;exitX=0.547;exitY=-0.01;exitDx=0;exitDy=0;exitPerimeter=0;entryX=0.5;entryY=1;entryDx=0;entryDy=0;" edge="1" parent="1" source="SlvavN0k8m86maqTuqYq-31" target="SlvavN0k8m86maqTuqYq-19">
          <mxGeometry width="50" height="50" relative="1" as="geometry">
            <mxPoint x="490" y="470" as="sourcePoint" />
            <mxPoint x="540" y="420" as="targetPoint" />
            <Array as="points">
              <mxPoint x="442" y="460" />
              <mxPoint x="519" y="460" />
            </Array>
          </mxGeometry>
        </mxCell>
        <mxCell id="SlvavN0k8m86maqTuqYq-49" value="" style="endArrow=none;html=1;exitX=0.5;exitY=0;exitDx=0;exitDy=0;" edge="1" parent="1" source="SlvavN0k8m86maqTuqYq-34">
          <mxGeometry width="50" height="50" relative="1" as="geometry">
            <mxPoint x="560" y="480" as="sourcePoint" />
            <mxPoint x="510" y="460" as="targetPoint" />
            <Array as="points">
              <mxPoint x="595" y="460" />
            </Array>
          </mxGeometry>
        </mxCell>
        <mxCell id="SlvavN0k8m86maqTuqYq-50" value="" style="endArrow=none;html=1;exitX=0.456;exitY=0.01;exitDx=0;exitDy=0;entryX=0.627;entryY=1;entryDx=0;entryDy=0;entryPerimeter=0;exitPerimeter=0;" edge="1" parent="1" source="SlvavN0k8m86maqTuqYq-37" target="SlvavN0k8m86maqTuqYq-22">
          <mxGeometry width="50" height="50" relative="1" as="geometry">
            <mxPoint x="720" y="480" as="sourcePoint" />
            <mxPoint x="770" y="430" as="targetPoint" />
          </mxGeometry>
        </mxCell>
        <mxCell id="SlvavN0k8m86maqTuqYq-51" value="add" style="text;html=1;align=center;verticalAlign=middle;resizable=0;points=[];autosize=1;" vertex="1" parent="1">
          <mxGeometry x="170" y="298" width="40" height="20" as="geometry" />
        </mxCell>
        <mxCell id="SlvavN0k8m86maqTuqYq-53" value="" style="endArrow=none;html=1;entryX=0.5;entryY=1;entryDx=0;entryDy=0;" edge="1" parent="1">
          <mxGeometry width="50" height="50" relative="1" as="geometry">
            <mxPoint x="172" y="320" as="sourcePoint" />
            <mxPoint x="363.5" y="250" as="targetPoint" />
            <Array as="points">
              <mxPoint x="172" y="290" />
              <mxPoint x="364" y="290" />
            </Array>
          </mxGeometry>
        </mxCell>
        <mxCell id="SlvavN0k8m86maqTuqYq-54" value="" style="endArrow=none;html=1;exitX=0.5;exitY=0;exitDx=0;exitDy=0;entryX=0.05;entryY=1.1;entryDx=0;entryDy=0;entryPerimeter=0;" edge="1" parent="1" source="SlvavN0k8m86maqTuqYq-10" target="SlvavN0k8m86maqTuqYq-51">
          <mxGeometry width="50" height="50" relative="1" as="geometry">
            <mxPoint x="90" y="360" as="sourcePoint" />
            <mxPoint x="140" y="310" as="targetPoint" />
            <Array as="points">
              <mxPoint x="85" y="340" />
              <mxPoint x="172" y="340" />
            </Array>
          </mxGeometry>
        </mxCell>
        <mxCell id="SlvavN0k8m86maqTuqYq-55" value="" style="endArrow=none;html=1;entryX=0.5;entryY=0;entryDx=0;entryDy=0;" edge="1" parent="1">
          <mxGeometry width="50" height="50" relative="1" as="geometry">
            <mxPoint x="172" y="320" as="sourcePoint" />
            <mxPoint x="267" y="380" as="targetPoint" />
            <Array as="points">
              <mxPoint x="172" y="340" />
              <mxPoint x="267" y="340" />
            </Array>
          </mxGeometry>
        </mxCell>
        <mxCell id="SlvavN0k8m86maqTuqYq-56" value="logs in" style="text;html=1;align=center;verticalAlign=middle;resizable=0;points=[];autosize=1;" vertex="1" parent="1">
          <mxGeometry x="365" y="150" width="50" height="20" as="geometry" />
        </mxCell>
        <mxCell id="SlvavN0k8m86maqTuqYq-57" value="delete" style="text;html=1;align=center;verticalAlign=middle;resizable=0;points=[];autosize=1;" vertex="1" parent="1">
          <mxGeometry x="517" y="298" width="50" height="20" as="geometry" />
        </mxCell>
        <mxCell id="SlvavN0k8m86maqTuqYq-58" value="update" style="text;html=1;align=center;verticalAlign=middle;resizable=0;points=[];autosize=1;" vertex="1" parent="1">
          <mxGeometry x="738" y="298" width="50" height="20" as="geometry" />
        </mxCell>
        <mxCell id="SlvavN0k8m86maqTuqYq-59" value="" style="endArrow=classic;html=1;" edge="1" parent="1">
          <mxGeometry width="50" height="50" relative="1" as="geometry">
            <mxPoint x="210.00000000000023" y="303" as="sourcePoint" />
            <mxPoint x="210.00000000000023" y="313" as="targetPoint" />
          </mxGeometry>
        </mxCell>
        <mxCell id="SlvavN0k8m86maqTuqYq-60" value="" style="endArrow=classic;html=1;" edge="1" parent="1">
          <mxGeometry width="50" height="50" relative="1" as="geometry">
            <mxPoint x="567.0000000000002" y="303" as="sourcePoint" />
            <mxPoint x="567.0000000000002" y="313" as="targetPoint" />
          </mxGeometry>
        </mxCell>
        <mxCell id="SlvavN0k8m86maqTuqYq-61" value="" style="endArrow=classic;html=1;" edge="1" parent="1">
          <mxGeometry width="50" height="50" relative="1" as="geometry">
            <mxPoint x="790.0000000000002" y="303" as="sourcePoint" />
            <mxPoint x="790.0000000000002" y="313" as="targetPoint" />
          </mxGeometry>
        </mxCell>
        <mxCell id="SlvavN0k8m86maqTuqYq-62" value="" style="endArrow=classic;html=1;" edge="1" parent="1">
          <mxGeometry width="50" height="50" relative="1" as="geometry">
            <mxPoint x="415.0000000000002" y="155" as="sourcePoint" />
            <mxPoint x="415.0000000000002" y="165" as="targetPoint" />
          </mxGeometry>
        </mxCell>
        <mxCell id="SlvavN0k8m86maqTuqYq-63" value="&lt;div align=&quot;left&quot;&gt;&lt;br&gt;&lt;/div&gt;&lt;div align=&quot;left&quot;&gt;+ Moviename : Challang&lt;br&gt;&lt;/div&gt;&lt;div align=&quot;left&quot;&gt;&lt;br&gt;&lt;/div&gt;&lt;div align=&quot;left&quot;&gt;+ Ratings : 3.2&lt;br&gt;&lt;/div&gt;&lt;div align=&quot;left&quot;&gt;&lt;br&gt;&lt;/div&gt;&lt;div align=&quot;left&quot;&gt;&lt;br&gt;&lt;/div&gt;" style="text;html=1;strokeColor=none;fillColor=none;align=left;verticalAlign=middle;whiteSpace=wrap;rounded=0;" vertex="1" parent="1">
          <mxGeometry x="444" y="360" width="150" height="60" as="geometry" />
        </mxCell>
        <mxCell id="SlvavN0k8m86maqTuqYq-64" value="&lt;div align=&quot;left&quot;&gt;&lt;br&gt;&lt;/div&gt;&lt;div align=&quot;left&quot;&gt;+ Moviename : Lawyer&lt;br&gt;&lt;/div&gt;&lt;div align=&quot;left&quot;&gt;&lt;br&gt;&lt;/div&gt;&lt;div align=&quot;left&quot;&gt;+ Ratings : 3.5&lt;br&gt;&lt;/div&gt;&lt;div align=&quot;left&quot;&gt;&lt;br&gt;&lt;/div&gt;&lt;div align=&quot;left&quot;&gt;&lt;br&gt;&lt;/div&gt;" style="text;html=1;strokeColor=none;fillColor=none;align=left;verticalAlign=middle;whiteSpace=wrap;rounded=0;" vertex="1" parent="1">
          <mxGeometry x="660" y="360" width="150" height="60" as="geometry" />
        </mxCell>
        <mxCell id="SlvavN0k8m86maqTuqYq-65" value="&lt;div align=&quot;left&quot;&gt;&lt;br&gt;&lt;/div&gt;&lt;div align=&quot;left&quot;&gt;+ Moviename : Keasri&lt;br&gt;&lt;/div&gt;&lt;div align=&quot;left&quot;&gt;&lt;br&gt;&lt;/div&gt;&lt;div align=&quot;left&quot;&gt;+ Ratings : 4.0&lt;br&gt;&lt;/div&gt;&lt;div align=&quot;left&quot;&gt;&lt;br&gt;&lt;/div&gt;&lt;div align=&quot;left&quot;&gt;&lt;br&gt;&lt;/div&gt;" style="text;html=1;strokeColor=none;fillColor=none;align=left;verticalAlign=middle;whiteSpace=wrap;rounded=0;" vertex="1" parent="1">
          <mxGeometry x="10" y="410" width="150" height="60" as="geometry" />
        </mxCell>
        <mxCell id="SlvavN0k8m86maqTuqYq-66" value="&lt;div align=&quot;left&quot;&gt;&lt;br&gt;&lt;/div&gt;&lt;div align=&quot;left&quot;&gt;+ Venue Name : PVR&lt;/div&gt;&lt;div align=&quot;left&quot;&gt;&lt;br&gt;&lt;/div&gt;&lt;div align=&quot;left&quot;&gt;+ Timings : 6:30pm - 9 pm&lt;br&gt;&lt;/div&gt;&lt;div align=&quot;left&quot;&gt;&lt;br&gt;&lt;/div&gt;+ Seats : 0&lt;br&gt;&lt;div align=&quot;left&quot;&gt;&lt;br&gt;&lt;/div&gt;" style="text;html=1;strokeColor=none;fillColor=none;align=left;verticalAlign=middle;whiteSpace=wrap;rounded=0;" vertex="1" parent="1">
          <mxGeometry x="365" y="513" width="150" height="60" as="geometry" />
        </mxCell>
        <mxCell id="SlvavN0k8m86maqTuqYq-67" value="&lt;div align=&quot;left&quot;&gt;&lt;br&gt;&lt;/div&gt;&lt;div align=&quot;left&quot;&gt;+ Venue Name : INOX&lt;/div&gt;&lt;div align=&quot;left&quot;&gt;&lt;br&gt;&lt;/div&gt;&lt;div align=&quot;left&quot;&gt;+ Timings : 9:30pm - 12 pm&lt;br&gt;&lt;/div&gt;&lt;div align=&quot;left&quot;&gt;&lt;br&gt;&lt;/div&gt;+ Seats : 0&lt;br&gt;&lt;div align=&quot;left&quot;&gt;&lt;br&gt;&lt;/div&gt;" style="text;html=1;strokeColor=none;fillColor=none;align=left;verticalAlign=middle;whiteSpace=wrap;rounded=0;" vertex="1" parent="1">
          <mxGeometry x="520" y="513" width="150" height="60" as="geometry" />
        </mxCell>
        <mxCell id="SlvavN0k8m86maqTuqYq-68" value="&lt;div align=&quot;left&quot;&gt;&lt;br&gt;&lt;/div&gt;&lt;div align=&quot;left&quot;&gt;+ Venue Name : HIL cinemas&lt;br&gt;&lt;/div&gt;&lt;div align=&quot;left&quot;&gt;&lt;br&gt;&lt;/div&gt;&lt;div align=&quot;left&quot;&gt;+ Timings : 6:30pm - 9 pm&lt;br&gt;&lt;/div&gt;&lt;div align=&quot;left&quot;&gt;&lt;br&gt;&lt;/div&gt;+ Seats : 30&lt;br&gt;&lt;div align=&quot;left&quot;&gt;&lt;br&gt;&lt;/div&gt;" style="text;html=1;strokeColor=none;fillColor=none;align=left;verticalAlign=middle;whiteSpace=wrap;rounded=0;" vertex="1" parent="1">
          <mxGeometry x="190" y="553" width="160" height="60" as="geometry" />
        </mxCell>
        <mxCell id="SlvavN0k8m86maqTuqYq-69" value="&lt;div align=&quot;left&quot;&gt;&lt;br&gt;&lt;/div&gt;&lt;div align=&quot;left&quot;&gt;+ Venue Name : Z Square&lt;br&gt;&lt;/div&gt;&lt;div align=&quot;left&quot;&gt;&lt;br&gt;&lt;/div&gt;&lt;div align=&quot;left&quot;&gt;+ Timings : 9:30pm - 12 pm&lt;br&gt;&lt;/div&gt;&lt;div align=&quot;left&quot;&gt;&lt;br&gt;&lt;/div&gt;+ Seats : 49&lt;br&gt;&lt;div align=&quot;left&quot;&gt;&lt;br&gt;&lt;/div&gt;" style="text;html=1;strokeColor=none;fillColor=none;align=left;verticalAlign=middle;whiteSpace=wrap;rounded=0;" vertex="1" parent="1">
          <mxGeometry x="10" y="553" width="150" height="60" as="geometry" />
        </mxCell>
        <mxCell id="SlvavN0k8m86maqTuqYq-70" value="&lt;div align=&quot;left&quot;&gt;&lt;br&gt;&lt;/div&gt;&lt;div align=&quot;left&quot;&gt;+ Venue Name : INOX&lt;/div&gt;&lt;div align=&quot;left&quot;&gt;&lt;br&gt;&lt;/div&gt;&lt;div align=&quot;left&quot;&gt;+ Timings : 9:30pm - 12 pm&lt;br&gt;&lt;/div&gt;&lt;div align=&quot;left&quot;&gt;&lt;br&gt;&lt;/div&gt;&lt;div&gt;+ Seats : 50&lt;/div&gt;&lt;div&gt;&lt;br&gt;&lt;/div&gt;" style="text;html=1;strokeColor=none;fillColor=none;align=left;verticalAlign=middle;whiteSpace=wrap;rounded=0;" vertex="1" parent="1">
          <mxGeometry x="680" y="513" width="150" height="60" as="geometry" />
        </mxCell>
        <mxCell id="SlvavN0k8m86maqTuqYq-71" value="&lt;div align=&quot;left&quot;&gt;&lt;br&gt;&lt;/div&gt;&lt;div align=&quot;left&quot;&gt;+ Moviename : Gatham&lt;br&gt;&lt;/div&gt;&lt;div align=&quot;left&quot;&gt;&lt;br&gt;&lt;/div&gt;&lt;div align=&quot;left&quot;&gt;+ Ratings : 3.7&lt;br&gt;&lt;/div&gt;&lt;div align=&quot;left&quot;&gt;&lt;br&gt;&lt;/div&gt;&lt;div align=&quot;left&quot;&gt;&lt;br&gt;&lt;/div&gt;" style="text;html=1;strokeColor=none;fillColor=none;align=left;verticalAlign=middle;whiteSpace=wrap;rounded=0;" vertex="1" parent="1">
          <mxGeometry x="190" y="410" width="150" height="60" as="geometry" />
        </mxCell>
      </root>
    </mxGraphModel>
  </diagram>
</mxfile>
